<?xml version="1.0" encoding="utf-8"?>
<!-- Generator: Adobe Illustrator 21.0.0, SVG Export Plug-In . SVG Version: 6.00 Build 0)  -->
<svg version="1.1" id="Layer_1" xmlns="http://www.w3.org/2000/svg" xmlns:xlink="http://www.w3.org/1999/xlink" x="0px" y="0px"
	 viewBox="0 0 268 64.9" style="enable-background:new 0 0 268 64.9;" xml:space="preserve">
<style type="text/css">
	.st0{fill:#EF6E2C;}
	.st1{fill:#335A7B;}
	.st2{fill:#00315A;}
</style>
<g>
	<g>
		<path class="st0" d="M5.4,26.5c0-5.6,1.5-9.9,4.6-12.9c3-3,7.5-4.5,13.5-4.5c6,0,11,0.8,15.1,2.4l-3.4,10.7
			c-3.4-1.2-6.9-1.7-10.5-1.7c-1.2,0-2.8,0.1-4.8,0.3l-0.4,2.5c6.3,0,10.7,0.9,13.3,2.6c2.6,1.8,3.9,4.3,3.9,7.6
			c0,11.5-6.1,17.3-18.3,17.3c-7.2,0-13-0.8-17.3-2.3l3.5-11.2c3.7,1.4,7.8,2.1,12.3,2.1c2.1,0,4.1-0.1,5.8-0.3l0.4-2.5
			c-6.4,0-11-0.8-13.6-2.5C6.7,32.6,5.4,30,5.4,26.5z"/>
		<path class="st0" d="M81,12.3l-6.1,37.5c-0.7,4.2-2.1,7.4-4.4,9.7c-2.2,2.2-5.1,3.4-8.6,3.4H42.5l1.7-10.3l13.2-0.8
			c2.2-0.1,3.5-1.2,3.9-3.2l0.1-1.2c-1.9,0.8-4.3,1.2-7.1,1.2c-4.5,0-7.7-1.3-9.6-3.8c-1.9-2.5-2.8-5.7-2.8-9.6
			c0-7.1,1.9-13.2,5.8-18.4c3.8-5.1,9-7.7,15.5-7.7C69.7,9.1,75.6,10.2,81,12.3z M58.4,24l-2.2,13.1h2.1c1.1,0,1.9,0,2.5-0.1
			c0.6-0.1,1.2-0.3,1.7-0.8c0.6-0.4,0.9-1.1,1.1-1.9l2.3-13.6h-2.2c-1.7,0-2.9,0.2-3.7,0.6C59.2,21.7,58.6,22.6,58.4,24z"/>
	</g>
	<g>
		<g>
			<path class="st1" d="M90.1,55.8c-0.3-0.6-0.7-1-1-1.3s-0.7-0.4-1.1-0.4c-0.4,0-0.7,0.1-1,0.3c-0.3,0.2-0.5,0.4-0.7,0.7
				c-0.2,0.3-0.4,0.7-0.5,1.1c-0.1,0.4-0.2,0.8-0.2,1.2c0,0.7,0.2,1.3,0.5,1.6s0.7,0.6,1.3,0.6c0.3,0,0.7-0.1,1.1-0.3
				c0.4-0.2,0.7-0.5,1.2-0.9l1.4,1.8c-0.6,0.6-1.2,1.1-1.8,1.5c-0.7,0.4-1.4,0.5-2.2,0.5c-0.6,0-1.1-0.1-1.6-0.3
				c-0.5-0.2-0.9-0.5-1.3-0.9c-0.4-0.4-0.6-0.9-0.8-1.5c-0.2-0.6-0.3-1.2-0.3-1.9c0-0.8,0.1-1.6,0.4-2.3c0.2-0.7,0.6-1.4,1-2
				c0.5-0.6,1-1,1.6-1.4c0.6-0.3,1.3-0.5,2.1-0.5c0.5,0,0.9,0.1,1.3,0.2c0.4,0.1,0.7,0.3,1,0.5c0.3,0.2,0.6,0.5,0.8,0.8
				c0.2,0.3,0.4,0.7,0.6,1L90.1,55.8z"/>
			<path class="st1" d="M100.3,54.6c0,0.1,0,0.3,0,0.4c0,0.1,0,0.3-0.1,0.5l-1.1,6.6h-2.5l0.1-0.7c-0.2,0.3-0.5,0.5-0.9,0.6
				c-0.3,0.2-0.7,0.3-1.2,0.3c-0.4,0-0.8-0.1-1.2-0.2c-0.4-0.1-0.7-0.3-1-0.6c-0.3-0.3-0.5-0.6-0.7-1c-0.2-0.4-0.3-0.9-0.3-1.5
				c0-0.6,0.1-1.1,0.3-1.6c0.2-0.5,0.5-0.9,0.8-1.2c0.3-0.3,0.8-0.6,1.2-0.8c0.5-0.2,1-0.3,1.6-0.3c0.4,0,0.9,0,1.3,0.1
				c0.4,0.1,0.8,0.2,1,0.3l0.1-0.4c0-0.1,0-0.1,0-0.2c0,0,0-0.1,0-0.1c0-0.4-0.1-0.6-0.4-0.8c-0.3-0.2-0.7-0.3-1.3-0.3
				c-0.4,0-0.8,0.1-1.2,0.2c-0.4,0.1-0.7,0.2-1,0.4l-0.7-1.9c0.4-0.3,0.9-0.5,1.5-0.6c0.6-0.2,1.1-0.2,1.7-0.2
				c0.6,0,1.1,0.1,1.6,0.2c0.5,0.1,0.9,0.3,1.2,0.5c0.3,0.3,0.6,0.6,0.8,1C100.2,53.6,100.3,54.1,100.3,54.6z M97.3,57.8
				c-0.2-0.1-0.5-0.2-0.7-0.3c-0.3-0.1-0.6-0.1-1.1-0.1c-0.2,0-0.5,0-0.7,0.1c-0.2,0.1-0.3,0.2-0.5,0.3s-0.2,0.3-0.3,0.5
				C94,58.4,94,58.6,94,58.8c0,0.4,0.1,0.7,0.3,0.9c0.2,0.2,0.6,0.3,1,0.3c0.2,0,0.4,0,0.6-0.1c0.2-0.1,0.3-0.1,0.5-0.2
				c0.1-0.1,0.3-0.2,0.4-0.3c0.1-0.1,0.2-0.2,0.3-0.3L97.3,57.8z"/>
			<path class="st1" d="M107.2,55c-0.2-0.2-0.4-0.4-0.7-0.5c-0.3-0.1-0.5-0.2-0.8-0.2c-0.2,0-0.4,0-0.6,0.1
				c-0.2,0.1-0.4,0.2-0.5,0.3c-0.2,0.2-0.3,0.4-0.4,0.8c-0.1,0.3-0.2,0.8-0.3,1.3l-0.9,5.4h-2.5l1.7-10.4h2.5l-0.1,0.7
				c0.2-0.3,0.5-0.5,0.8-0.7c0.3-0.2,0.7-0.3,1.1-0.3c0.4,0,0.8,0.1,1.1,0.3c0.3,0.2,0.6,0.4,0.7,0.6L107.2,55z"/>
			<path class="st1" d="M118.4,55c-0.2-0.2-0.4-0.4-0.7-0.5c-0.3-0.1-0.5-0.2-0.8-0.2c-0.2,0-0.4,0-0.6,0.1
				c-0.2,0.1-0.4,0.2-0.5,0.3c-0.2,0.2-0.3,0.4-0.4,0.8c-0.1,0.3-0.2,0.8-0.3,1.3l-0.9,5.4h-2.5l1.7-10.4h2.5l-0.1,0.7
				c0.2-0.3,0.5-0.5,0.8-0.7c0.3-0.2,0.7-0.3,1.1-0.3c0.4,0,0.8,0.1,1.1,0.3c0.3,0.2,0.6,0.4,0.7,0.6L118.4,55z"/>
			<path class="st1" d="M126.9,55.7c0,0.3,0,0.7-0.1,1c0,0.3-0.1,0.7-0.2,1.1h-5.7c0,0.4,0,0.7,0.1,0.9c0.1,0.2,0.2,0.4,0.4,0.6
				c0.2,0.2,0.4,0.3,0.6,0.3c0.2,0.1,0.4,0.1,0.7,0.1c0.3,0,0.6-0.1,1-0.2c0.3-0.1,0.6-0.3,1-0.5l1.2,1.9c-0.6,0.5-1.1,0.8-1.7,1
				c-0.6,0.2-1.1,0.3-1.7,0.3c-0.6,0-1.2-0.1-1.7-0.3c-0.5-0.2-0.9-0.5-1.3-0.9c-0.3-0.4-0.6-0.9-0.8-1.4c-0.2-0.6-0.3-1.2-0.3-1.9
				c0-0.9,0.1-1.7,0.4-2.5c0.3-0.8,0.6-1.4,1.1-2c0.4-0.6,1-1,1.6-1.3c0.6-0.3,1.3-0.5,1.9-0.5c0.6,0,1.1,0.1,1.6,0.3
				c0.4,0.2,0.8,0.5,1.1,0.9c0.3,0.4,0.5,0.8,0.6,1.3C126.8,54.6,126.9,55.2,126.9,55.7z M124.5,55.8c0-0.3,0-0.5,0-0.7
				c0-0.2-0.1-0.4-0.2-0.6c-0.1-0.2-0.3-0.3-0.5-0.4c-0.2-0.1-0.4-0.1-0.7-0.1c-0.2,0-0.4,0-0.6,0.1c-0.2,0.1-0.3,0.2-0.5,0.4
				c-0.1,0.2-0.3,0.4-0.4,0.6c-0.1,0.2-0.2,0.5-0.3,0.7H124.5z"/>
			<path class="st1" d="M136.3,54.7c0,0.2,0,0.5,0,0.7c0,0.3-0.1,0.5-0.1,0.8l-0.9,5.8h-2.5l0.9-5.6c0-0.2,0.1-0.3,0.1-0.5
				c0-0.2,0-0.3,0-0.4c0-0.5-0.1-0.9-0.3-1.1c-0.2-0.3-0.6-0.4-1-0.4c-0.2,0-0.5,0-0.7,0.1c-0.2,0.1-0.4,0.2-0.6,0.4
				c-0.2,0.2-0.3,0.4-0.4,0.7c-0.1,0.3-0.2,0.7-0.3,1.1l-0.9,5.7H127l1.7-10.4h2.5l-0.1,0.7c0.2-0.2,0.5-0.5,0.9-0.6
				c0.4-0.2,0.8-0.3,1.3-0.3c1,0,1.8,0.3,2.3,0.8S136.3,53.7,136.3,54.7z"/>
			<path class="st1" d="M141.2,62.1c0,0-0.1,0-0.3,0.1c-0.2,0-0.4,0-0.5,0c-1.1,0-2-0.2-2.5-0.7c-0.6-0.5-0.8-1.1-0.8-2
				c0-0.3,0-0.6,0.1-0.8l1.6-9.6l2.7-1.4l-0.6,4h2.1l-0.4,2.6h-2.1c-0.1,0.4-0.1,0.9-0.2,1.3l-0.3,2.1c0,0.1,0,0.2,0,0.3
				c0,0.1,0,0.2,0,0.3c0,0.4,0.1,0.7,0.3,0.9c0.2,0.2,0.5,0.3,1,0.3c0.2,0,0.3,0,0.4,0c0.1,0,0.2,0,0.3-0.1L141.2,62.1z"/>
			<path class="st1" d="M151.2,54.6c0,0.1,0,0.3,0,0.4c0,0.1,0,0.3-0.1,0.5l-1.1,6.6h-2.5l0.1-0.7c-0.2,0.3-0.5,0.5-0.9,0.6
				c-0.3,0.2-0.7,0.3-1.2,0.3c-0.4,0-0.8-0.1-1.2-0.2c-0.4-0.1-0.7-0.3-1-0.6s-0.5-0.6-0.7-1c-0.2-0.4-0.3-0.9-0.3-1.5
				c0-0.6,0.1-1.1,0.3-1.6c0.2-0.5,0.5-0.9,0.8-1.2c0.3-0.3,0.8-0.6,1.2-0.8c0.5-0.2,1-0.3,1.6-0.3c0.4,0,0.9,0,1.3,0.1
				c0.4,0.1,0.8,0.2,1,0.3l0.1-0.4c0-0.1,0-0.1,0-0.2c0,0,0-0.1,0-0.1c0-0.4-0.1-0.6-0.4-0.8c-0.3-0.2-0.7-0.3-1.3-0.3
				c-0.4,0-0.8,0.1-1.2,0.2c-0.4,0.1-0.7,0.2-1,0.4l-0.7-1.9c0.4-0.3,0.9-0.5,1.5-0.6c0.6-0.2,1.1-0.2,1.7-0.2
				c0.6,0,1.1,0.1,1.6,0.2s0.9,0.3,1.2,0.5c0.3,0.3,0.6,0.6,0.8,1C151.1,53.6,151.2,54.1,151.2,54.6z M148.3,57.8
				c-0.2-0.1-0.5-0.2-0.7-0.3c-0.3-0.1-0.6-0.1-1.1-0.1c-0.2,0-0.5,0-0.7,0.1c-0.2,0.1-0.3,0.2-0.5,0.3c-0.1,0.1-0.2,0.3-0.3,0.5
				c-0.1,0.2-0.1,0.4-0.1,0.6c0,0.4,0.1,0.7,0.3,0.9c0.2,0.2,0.6,0.3,1,0.3c0.2,0,0.4,0,0.6-0.1c0.2-0.1,0.3-0.1,0.5-0.2
				c0.1-0.1,0.3-0.2,0.4-0.3c0.1-0.1,0.2-0.2,0.3-0.3L148.3,57.8z"/>
			<path class="st1" d="M154.1,62.1h-2.5l2.1-13l2.7-1.4L154.1,62.1z"/>
			<path class="st1" d="M167.7,54.9c-0.2-0.1-0.4-0.3-0.6-0.4c-0.2-0.1-0.5-0.2-0.7-0.3c-0.3-0.1-0.5-0.2-0.8-0.2
				c-0.3-0.1-0.6-0.1-0.8-0.1c-0.4,0-0.6,0.1-0.8,0.2c-0.2,0.1-0.2,0.3-0.2,0.5c0,0.1,0,0.2,0,0.2c0,0.1,0.1,0.2,0.2,0.3
				c0.1,0.1,0.3,0.2,0.5,0.3c0.2,0.1,0.6,0.3,1,0.5c0.4,0.2,0.8,0.4,1.1,0.6c0.3,0.2,0.6,0.4,0.8,0.7c0.2,0.2,0.4,0.5,0.5,0.8
				c0.1,0.3,0.2,0.7,0.2,1c0,0.6-0.1,1.1-0.3,1.6c-0.2,0.4-0.5,0.8-0.8,1.1c-0.3,0.3-0.7,0.5-1.2,0.6c-0.5,0.1-1,0.2-1.5,0.2
				c-0.9,0-1.8-0.2-2.5-0.5c-0.8-0.3-1.4-0.7-1.9-1.1l1.2-2c0.4,0.3,0.9,0.6,1.5,0.8c0.6,0.2,1.2,0.4,2,0.4c0.3,0,0.6-0.1,0.8-0.2
				c0.2-0.1,0.3-0.3,0.3-0.6c0-0.1,0-0.2-0.1-0.3c0-0.1-0.1-0.2-0.2-0.3c-0.1-0.1-0.2-0.2-0.4-0.3c-0.2-0.1-0.3-0.2-0.6-0.3
				c-0.5-0.2-1-0.5-1.4-0.7c-0.4-0.2-0.7-0.5-1-0.7c-0.3-0.3-0.5-0.5-0.6-0.8c-0.1-0.3-0.2-0.7-0.2-1c0-1.1,0.3-1.9,1-2.5
				c0.6-0.6,1.6-0.9,2.8-0.9c0.4,0,0.8,0,1.2,0.1c0.4,0.1,0.7,0.2,1.1,0.3c0.3,0.1,0.6,0.2,0.9,0.4c0.3,0.1,0.5,0.3,0.8,0.5
				L167.7,54.9z"/>
			<path class="st1" d="M177.4,55.7c0,0.3,0,0.7-0.1,1c0,0.3-0.1,0.7-0.2,1.1h-5.7c0,0.4,0,0.7,0.1,0.9c0.1,0.2,0.2,0.4,0.4,0.6
				c0.2,0.2,0.4,0.3,0.6,0.3c0.2,0.1,0.4,0.1,0.7,0.1c0.3,0,0.6-0.1,1-0.2s0.6-0.3,1-0.5l1.2,1.9c-0.6,0.5-1.1,0.8-1.7,1
				c-0.6,0.2-1.1,0.3-1.7,0.3c-0.6,0-1.2-0.1-1.7-0.3c-0.5-0.2-0.9-0.5-1.3-0.9c-0.3-0.4-0.6-0.9-0.8-1.4c-0.2-0.6-0.3-1.2-0.3-1.9
				c0-0.9,0.1-1.7,0.4-2.5c0.3-0.8,0.6-1.4,1.1-2c0.4-0.6,1-1,1.6-1.3c0.6-0.3,1.3-0.5,1.9-0.5c0.6,0,1.1,0.1,1.6,0.3
				c0.4,0.2,0.8,0.5,1.1,0.9c0.3,0.4,0.5,0.8,0.6,1.3C177.4,54.6,177.4,55.2,177.4,55.7z M175.1,55.8c0-0.3,0-0.5,0-0.7
				c0-0.2-0.1-0.4-0.2-0.6c-0.1-0.2-0.3-0.3-0.5-0.4c-0.2-0.1-0.4-0.1-0.7-0.1c-0.2,0-0.4,0-0.6,0.1c-0.2,0.1-0.3,0.2-0.5,0.4
				c-0.1,0.2-0.3,0.4-0.4,0.6c-0.1,0.2-0.2,0.5-0.3,0.7H175.1z"/>
			<path class="st1" d="M184.2,55c-0.2-0.2-0.4-0.4-0.7-0.5c-0.3-0.1-0.5-0.2-0.8-0.2c-0.2,0-0.4,0-0.6,0.1
				c-0.2,0.1-0.4,0.2-0.5,0.3c-0.2,0.2-0.3,0.4-0.4,0.8c-0.1,0.3-0.2,0.8-0.3,1.3l-0.9,5.4h-2.5l1.7-10.4h2.5l-0.1,0.7
				c0.2-0.3,0.5-0.5,0.8-0.7c0.3-0.2,0.7-0.3,1.1-0.3c0.4,0,0.8,0.1,1.1,0.3c0.3,0.2,0.6,0.4,0.7,0.6L184.2,55z"/>
			<path class="st1" d="M189.8,62.1h-2.6l-1.7-10.4h2.7l0.9,6.9l3.1-6.9h2.7L189.8,62.1z"/>
			<path class="st1" d="M196.5,62.1H194l1.7-10.4h2.5L196.5,62.1z M198.8,49.3c0,0.2,0,0.4-0.1,0.6c-0.1,0.2-0.2,0.4-0.3,0.5
				c-0.1,0.1-0.3,0.3-0.5,0.3c-0.2,0.1-0.4,0.1-0.6,0.1c-0.2,0-0.4,0-0.6-0.1c-0.2-0.1-0.3-0.2-0.5-0.3c-0.1-0.1-0.2-0.3-0.3-0.5
				c-0.1-0.2-0.1-0.4-0.1-0.6s0-0.4,0.1-0.6c0.1-0.2,0.2-0.4,0.3-0.5c0.1-0.1,0.3-0.3,0.5-0.3c0.2-0.1,0.4-0.1,0.6-0.1
				c0.2,0,0.4,0,0.6,0.1c0.2,0.1,0.3,0.2,0.5,0.3c0.1,0.1,0.2,0.3,0.3,0.5C198.7,48.9,198.8,49.1,198.8,49.3z"/>
			<path class="st1" d="M205.4,55.8c-0.3-0.6-0.7-1-1-1.3c-0.3-0.3-0.7-0.4-1.1-0.4c-0.4,0-0.7,0.1-1,0.3c-0.3,0.2-0.5,0.4-0.7,0.7
				c-0.2,0.3-0.4,0.7-0.5,1.1c-0.1,0.4-0.2,0.8-0.2,1.2c0,0.7,0.2,1.3,0.5,1.6s0.7,0.6,1.3,0.6c0.3,0,0.7-0.1,1.1-0.3
				c0.4-0.2,0.7-0.5,1.2-0.9l1.4,1.8c-0.6,0.6-1.2,1.1-1.8,1.5c-0.7,0.4-1.4,0.5-2.2,0.5c-0.6,0-1.1-0.1-1.6-0.3
				c-0.5-0.2-0.9-0.5-1.3-0.9c-0.4-0.4-0.6-0.9-0.8-1.5c-0.2-0.6-0.3-1.2-0.3-1.9c0-0.8,0.1-1.6,0.4-2.3c0.2-0.7,0.6-1.4,1-2
				c0.5-0.6,1-1,1.6-1.4c0.6-0.3,1.3-0.5,2.1-0.5c0.5,0,0.9,0.1,1.3,0.2c0.4,0.1,0.7,0.3,1,0.5c0.3,0.2,0.6,0.5,0.8,0.8
				c0.2,0.3,0.4,0.7,0.6,1L205.4,55.8z"/>
			<path class="st1" d="M215.4,55.7c0,0.3,0,0.7-0.1,1c0,0.3-0.1,0.7-0.2,1.1h-5.7c0,0.4,0,0.7,0.1,0.9c0.1,0.2,0.2,0.4,0.4,0.6
				c0.2,0.2,0.4,0.3,0.6,0.3c0.2,0.1,0.4,0.1,0.7,0.1c0.3,0,0.6-0.1,1-0.2s0.6-0.3,1-0.5l1.2,1.9c-0.6,0.5-1.1,0.8-1.7,1
				c-0.6,0.2-1.1,0.3-1.7,0.3c-0.6,0-1.2-0.1-1.7-0.3c-0.5-0.2-0.9-0.5-1.3-0.9c-0.3-0.4-0.6-0.9-0.8-1.4c-0.2-0.6-0.3-1.2-0.3-1.9
				c0-0.9,0.1-1.7,0.4-2.5c0.3-0.8,0.6-1.4,1.1-2c0.4-0.6,1-1,1.6-1.3c0.6-0.3,1.3-0.5,1.9-0.5c0.6,0,1.1,0.1,1.6,0.3
				c0.4,0.2,0.8,0.5,1.1,0.9c0.3,0.4,0.5,0.8,0.6,1.3C215.3,54.6,215.4,55.2,215.4,55.7z M213,55.8c0-0.3,0-0.5,0-0.7
				c0-0.2-0.1-0.4-0.2-0.6c-0.1-0.2-0.3-0.3-0.5-0.4c-0.2-0.1-0.4-0.1-0.7-0.1c-0.2,0-0.4,0-0.6,0.1c-0.2,0.1-0.3,0.2-0.5,0.4
				c-0.1,0.2-0.3,0.4-0.4,0.6c-0.1,0.2-0.2,0.5-0.3,0.7H213z"/>
			<path class="st1" d="M223,54.9c-0.2-0.1-0.4-0.3-0.6-0.4c-0.2-0.1-0.5-0.2-0.7-0.3c-0.3-0.1-0.5-0.2-0.8-0.2
				c-0.3-0.1-0.6-0.1-0.8-0.1c-0.4,0-0.6,0.1-0.8,0.2c-0.2,0.1-0.2,0.3-0.2,0.5c0,0.1,0,0.2,0,0.2c0,0.1,0.1,0.2,0.2,0.3
				c0.1,0.1,0.3,0.2,0.5,0.3c0.2,0.1,0.6,0.3,1,0.5c0.4,0.2,0.8,0.4,1.1,0.6c0.3,0.2,0.6,0.4,0.8,0.7c0.2,0.2,0.4,0.5,0.5,0.8
				c0.1,0.3,0.2,0.7,0.2,1c0,0.6-0.1,1.1-0.3,1.6c-0.2,0.4-0.5,0.8-0.8,1.1c-0.3,0.3-0.7,0.5-1.2,0.6c-0.5,0.1-1,0.2-1.5,0.2
				c-0.9,0-1.8-0.2-2.5-0.5c-0.8-0.3-1.4-0.7-1.9-1.1l1.2-2c0.4,0.3,0.9,0.6,1.5,0.8c0.6,0.2,1.2,0.4,2,0.4c0.3,0,0.6-0.1,0.8-0.2
				c0.2-0.1,0.3-0.3,0.3-0.6c0-0.1,0-0.2-0.1-0.3c0-0.1-0.1-0.2-0.2-0.3c-0.1-0.1-0.2-0.2-0.4-0.3c-0.2-0.1-0.3-0.2-0.6-0.3
				c-0.5-0.2-1-0.5-1.4-0.7c-0.4-0.2-0.7-0.5-1-0.7c-0.3-0.3-0.5-0.5-0.6-0.8c-0.1-0.3-0.2-0.7-0.2-1c0-1.1,0.3-1.9,1-2.5
				c0.6-0.6,1.6-0.9,2.8-0.9c0.4,0,0.8,0,1.2,0.1c0.4,0.1,0.7,0.2,1.1,0.3c0.3,0.1,0.6,0.2,0.9,0.4c0.3,0.1,0.5,0.3,0.8,0.5
				L223,54.9z"/>
		</g>
	</g>
	<g>
		<g>
			<path class="st2" d="M91.2,11.9h5.2l2.4,3.3c2.4-2.1,5.2-3.6,8.4-4.2L106,22.2c-0.8,0-2,0.3-3.4,0.7c-1.4,0.4-2.4,1-3,1.7
				l-2.8,17.1H86.3L91.2,11.9z"/>
			<path class="st2" d="M119.2,31.6l-0.3,2.1c1,0.1,2.1,0.2,3.1,0.2c3.4,0,6.7-0.6,10.1-1.8l-0.2,8.8c-4.1,1.2-8.1,1.8-12.1,1.8
				c-7.7,0-11.6-3.6-11.6-10.9c0-8.2,2.3-14.1,6.9-17.9c2.5-2,5.5-2.9,9-2.9c4.6,0,7.8,0.5,9.6,1.6c1.8,1.1,2.7,2.8,2.7,5.3
				s-0.3,4.6-0.9,6.1c-0.6,1.6-1.3,2.9-2.2,3.8c-0.9,1-2.1,1.7-3.7,2.3C127.1,31,123.6,31.5,119.2,31.6z M120.7,22.2l-0.4,2.4h2.2
				c1.2,0,2.1-0.1,2.8-0.4c0.6-0.3,1-1,1.2-2.1l0.4-2.4h-2.2c-1.3,0-2.2,0.1-2.8,0.4C121.3,20.4,120.9,21.1,120.7,22.2z"/>
			<path class="st2" d="M148.7,11.9l2.2,3c3.6-2.6,7.3-3.9,11.1-3.9c2.2,0,3.8,0.5,5,1.4c1.2,1,1.8,2.3,1.8,4.1c0,0.3,0,0.7-0.1,1.4
				l-3.9,23.9h-10.5l3.4-20.9h-1.6c-1.2,0-2.1,0.1-2.8,0.4c-0.7,0.3-1.1,0.9-1.2,1.8l-3,18.6h-10.5l4.9-29.9H148.7z"/>
			<path class="st2" d="M173.1,19.6l1.3-7.7h2.6l0.8-4.8l11-3l-1.3,7.8h3.6l-1.3,7.7h-3.6L184,33.2c0.9,0.2,1.9,0.3,3,0.4l-1.9,8.8
				c-5.1,0-8.5-0.4-9.9-1.1c-1.5-0.8-2.3-2.1-2.3-3.9c0-0.2,0-0.6,0.1-1.3l2.7-16.5H173.1z"/>
			<path class="st2" d="M221.6,13.3L217,41.7h-5.2l-2.5-3.4c-1.2,1.4-2.4,2.5-3.6,3.2c-1.2,0.7-2.7,1.1-4.6,1.1c-3.3,0-5.7-1-7.1-3
				c-1.4-2-2.1-4.6-2.1-7.8c0-5.7,1.4-10.6,4.2-14.7c2.8-4.1,6.7-6.2,11.7-6.2C212.1,11,216.7,11.8,221.6,13.3z M204.4,22.2
				l-1.9,11.7h1.6c0.8,0,1.4,0,1.9-0.1c0.4-0.1,0.9-0.3,1.3-0.6c0.4-0.3,0.7-0.8,0.8-1.5l2-12.1h-1.7c-1.3,0-2.2,0.1-2.8,0.4
				C205,20.4,204.6,21.1,204.4,22.2z"/>
			<path class="st2" d="M240.4,2l-5.1,31.2c1.1,0.2,1.9,0.4,2.5,0.4l-1.9,8.8c-4.9,0-8-0.4-9.4-1.1c-0.6-0.4-1.2-0.9-1.6-1.5
				c-0.4-0.7-0.7-1.3-0.7-1.8c0-0.6,0-1.2,0.1-1.8l5.4-33.2L240.4,2z"/>
			<path class="st2" d="M242.9,24.1c0-4.3,1.1-7.5,3.4-9.8c2.3-2.2,5.7-3.4,10.2-3.4c4.5,0,8.3,0.6,11.4,1.9l-2.5,8.1
				c-2.5-0.9-5.2-1.3-7.9-1.3c-0.9,0-2.1,0.1-3.6,0.2l-0.3,1.9c4.7,0,8.1,0.7,10,2c1.9,1.3,2.9,3.3,2.9,5.8
				c0,8.7-4.6,13.1-13.8,13.1c-5.5,0-9.8-0.6-13.1-1.7l2.6-8.5c2.8,1,5.9,1.6,9.3,1.6c1.6,0,3.1-0.1,4.4-0.2l0.3-1.9
				c-4.9,0-8.3-0.6-10.3-1.9C243.9,28.7,242.9,26.7,242.9,24.1z"/>
		</g>
	</g>
</g>
</svg>
